<svg xmlns="http://www.w3.org/2000/svg" width="1080" height="1080" viewBox="0 0 1080 1080" version="1.1"><path d="M 401 561 L 401 723 503 723 L 605 723 605 561 L 605 399 503 399 L 401 399 401 561" stroke="none" fill="#a824cc" fill-rule="evenodd"/><path d="M 375.500 174.072 C 361.960 175.185, 347.275 177.698, 337.011 180.658 C 297.089 192.170, 251.905 232.452, 231.970 274.302 C 223.741 291.578, 219.943 308.025, 217.955 335 C 217.226 344.894, 216.994 426.367, 217.223 591.500 L 217.559 833.500 219.333 843.822 C 223.066 865.544, 228.404 878.904, 238.058 890.687 C 251.760 907.411, 268.151 915.864, 296.178 920.660 L 306.500 922.426 488.500 922.773 C 673.658 923.126, 688.032 922.905, 709 919.378 C 741.391 913.930, 770.922 897.412, 797.560 869.842 C 823.928 842.552, 838.118 816.277, 843.378 785 C 846.963 763.686, 847.119 750.826, 846.777 504.500 L 846.441 262.500 844.667 252.178 C 840.934 230.456, 835.596 217.096, 825.942 205.313 C 812.240 188.589, 795.852 180.138, 767.822 175.340 L 757.500 173.573 571.500 173.411 C 469.200 173.322, 381 173.620, 375.500 174.072 M 401 561 L 401 723 503 723 L 605 723 605 561 L 605 399 503 399 L 401 399 401 561" stroke="none" fill="#2e083b" fill-rule="evenodd"/></svg>